<?xml version="1.0" encoding="UTF-8" standalone="no"?>
<!-- Created with Inkscape (http://www.inkscape.org/) -->

<svg
   version="1.1"
   id="svg1132"
   width="567.11066"
   height="151.8071"
   viewBox="0 0 567.11066 151.8071"
   sodipodi:docname="Alpenverein_Wege-ins-Freie_Schriftzug.pdf"
   inkscape:version="1.2.1 (9c6d41e410, 2022-07-14)"
   xmlns:inkscape="http://www.inkscape.org/namespaces/inkscape"
   xmlns:sodipodi="http://sodipodi.sourceforge.net/DTD/sodipodi-0.dtd"
   xmlns="http://www.w3.org/2000/svg"
   xmlns:svg="http://www.w3.org/2000/svg">
  <defs
     id="defs1136">
    <clipPath
       clipPathUnits="userSpaceOnUse"
       id="clipPath1148">
      <path
         d="M 15,15 H 457.205 V 145.394 H 15 Z"
         id="path1146" />
    </clipPath>
    <clipPath
       clipPathUnits="userSpaceOnUse"
       id="clipPath1160">
      <path
         d="M 0,0 H 472.205 V 160.394 H 0 Z"
         id="path1158" />
    </clipPath>
    <clipPath
       clipPathUnits="userSpaceOnUse"
       id="clipPath1352">
      <path
         d="M 0,0 H 472.205 V 160.394 H 0 Z"
         id="path1350" />
    </clipPath>
    <clipPath
       clipPathUnits="userSpaceOnUse"
       id="clipPath1440">
      <path
         d="M 15,15 H 457.205 V 145.394 H 15 Z"
         id="path1438" />
    </clipPath>
    <clipPath
       clipPathUnits="userSpaceOnUse"
       id="clipPath1452">
      <path
         d="M 0,0 H 472.205 V 160.394 H 0 Z"
         id="path1450" />
    </clipPath>
    <clipPath
       clipPathUnits="userSpaceOnUse"
       id="clipPath1644">
      <path
         d="M 0,0 H 472.205 V 160.394 H 0 Z"
         id="path1642" />
    </clipPath>
    <clipPath
       clipPathUnits="userSpaceOnUse"
       id="clipPath1897">
      <rect
         style="fill:#ee60ee;stroke-width:0.751177"
         id="rect1899"
         width="461.05994"
         height="113.85532"
         x="5.2769494"
         y="-137.02965" />
    </clipPath>
  </defs>
  <sodipodi:namedview
     id="namedview1134"
     pagecolor="#ffffff"
     bordercolor="#000000"
     borderopacity="0.25"
     inkscape:showpageshadow="2"
     inkscape:pageopacity="0.0"
     inkscape:pagecheckerboard="0"
     inkscape:deskcolor="#d1d1d1"
     showgrid="false"
     inkscape:zoom="1.1586599"
     inkscape:cx="513.5243"
     inkscape:cy="65.161487"
     inkscape:window-width="2560"
     inkscape:window-height="1016"
     inkscape:window-x="0"
     inkscape:window-y="27"
     inkscape:window-maximized="1"
     inkscape:current-layer="g1140">
    <inkscape:page
       x="0"
       y="0"
       id="page1138"
       width="567.11066"
       height="151.8071" />
    <inkscape:page
       x="618.37781"
       y="-31.152477"
       id="page1430"
       width="629.60669"
       height="213.85867" />
  </sodipodi:namedview>
  <g
     id="g1140"
     inkscape:groupmode="layer"
     inkscape:label="Page 1"
     transform="matrix(1.3333333,0,0,-1.3333333,-31.228879,182.70619)">
    <g
       id="g1142">
      <g
         id="g1144"
         clip-path="url(#clipPath1148)">
        <g
           id="g1150"
           transform="translate(57.9048,56.9772)">
          <path
             d="M 0,0 9.18,35.76 18.48,0 h 6.96 l 11.64,42.36 h -5.4 L 22.5,5.94 13.02,42.36 H 6.36 L -3.06,5.94 -12.12,42.36 h -6.66 L -7.14,0 Z M 63.3,4.5 62.88,4.38 C 60.18,4.02 57.36,3.78 55.26,3.78 47.88,3.78 44.7,6.96 44.7,14.4 v 0.54 h 19.98 c -0.06,4.44 -0.24,6.36 -0.9,8.34 -1.62,5.22 -5.52,7.92 -11.4,7.92 -8.7,0 -13.98,-6.3 -13.98,-16.74 0,-5.34 1.38,-9.18 4.2,-11.7 2.28,-2.04 6.12,-3.3 10.08,-3.3 0.6,0 1.2,0 1.68,0.06 2.28,0.3 5.1,0.78 8.46,1.56 L 63.3,1.2 Z M 58.38,18.42 H 44.7 c 0.06,6.12 2.52,9.18 7.26,9.18 4.44,0 6.36,-2.64 6.42,-8.82 z M 91.26,30.6 v -1.26 c -2.22,1.08 -4.56,1.62 -6.9,1.62 -8.4,0 -14.7,-7.08 -14.7,-16.5 0,-9 4.98,-15.06 12.54,-15.06 0.72,0 1.26,0.06 1.68,0.12 1.5,0.3 3.72,1.02 6.54,2.1 l 0.66,0.24 v -3.3 c 0,-2.7 -0.18,-3.84 -0.9,-4.98 -1.08,-1.74 -3.9,-2.7 -8.04,-2.7 -2.88,0 -6.48,0.42 -9.72,1.14 l -0.48,0.12 v -3.84 l 0.3,-0.06 c 3.3,-0.84 6.12,-1.44 8.4,-1.68 0.66,-0.06 1.56,-0.12 2.58,-0.12 3.9,0 7.26,0.78 9.6,2.28 3.06,1.86 4.26,4.5 4.26,9.24 V 30.6 Z M 91.08,4.56 c -1.74,-0.36 -3.66,-0.6 -5.52,-0.6 -6.06,0 -9.48,4.02 -9.48,11.16 0,7.38 3.78,11.76 10.2,11.76 1.62,0 3.36,-0.18 4.8,-0.48 z m 37.739,-0.06 -0.42,-0.12 c -2.7,-0.36 -5.52,-0.6 -7.62,-0.6 -7.38,0 -10.56,3.18 -10.56,10.62 v 0.54 h 19.98 c -0.06,4.44 -0.24,6.36 -0.9,8.34 -1.62,5.22 -5.52,7.92 -11.4,7.92 -8.7,0 -13.98,-6.3 -13.98,-16.74 0,-5.34 1.38,-9.18 4.2,-11.7 2.28,-2.04 6.12,-3.3 10.08,-3.3 0.6,0 1.2,0 1.68,0.06 2.28,0.3 5.1,0.78 8.46,1.56 l 0.48,0.12 z m -4.92,13.92 h -13.68 c 0.06,6.12 2.52,9.18 7.26,9.18 4.44,0 6.36,-2.64 6.42,-8.82 z M 151.439,0 h 6 v 30.6 h -6 z m -0.84,39.36 c 0,-2.34 1.32,-3.6 3.72,-3.6 2.7,0 3.96,1.2 3.96,3.66 0,2.34 -1.26,3.48 -3.84,3.48 -2.52,0 -3.84,-1.2 -3.84,-3.54 M 166.198,0 h 6 v 25.86 l 0.24,0.06 c 2.1,0.48 4.44,0.78 6.36,0.78 2.4,0 4.2,-0.54 5.22,-1.68 1.14,-1.26 1.5,-2.82 1.5,-6.36 V 0 h 6 v 19.68 c 0,4.44 -0.6,6.72 -2.16,8.58 -1.5,1.86 -4.38,3 -7.44,3 -0.72,0 -1.32,-0.06 -1.62,-0.12 -1.8,-0.3 -4.44,-1.02 -7.74,-2.28 l -0.54,-0.18 v 1.92 h -5.82 z m 50.7,29.58 -0.72,0.18 c -3.06,0.9 -5.52,1.38 -7.38,1.38 -6.24,0 -10.14,-3.36 -10.14,-8.64 0,-3.54 1.8,-6.06 5.76,-8.04 l 5.4,-2.76 c 1.92,-0.96 2.76,-2.1 2.76,-3.84 0,-2.82 -2.04,-4.32 -5.94,-4.32 -2.58,0 -4.98,0.3 -8.4,1.14 V 1.02 l 0.42,-0.12 c 3.66,-0.96 6.48,-1.44 8.34,-1.44 6.96,0 11.28,3.6 11.28,9.3 0,3.54 -1.5,5.88 -4.86,7.62 l -5.52,2.82 c -2.64,1.32 -3.6,2.46 -3.6,4.14 0,2.46 1.8,3.72 5.22,3.72 2.34,0 4.68,-0.3 7.38,-1.08 z m 45.899,12.78 h -22.92 V 0 h 6.24 v 19.98 h 13.32 v 4.14 h -13.32 v 14.1 h 16.68 z M 266.276,30.6 V 0 h 6 v 25.5 c 1.5,0.36 3.36,0.6 4.74,0.6 2.34,0 4.5,-0.48 6.18,-1.32 v 5.52 c -0.9,0.48 -2.04,0.72 -3.18,0.72 -1.32,0 -3.24,-0.66 -7.5,-2.52 l -0.42,-0.18 v 2.28 z m 44.58,-26.1 -0.42,-0.12 c -2.7,-0.36 -5.52,-0.6 -7.62,-0.6 -7.38,0 -10.56,3.18 -10.56,10.62 v 0.54 h 19.98 c -0.06,4.44 -0.24,6.36 -0.9,8.34 -1.62,5.22 -5.52,7.92 -11.4,7.92 -8.7,0 -13.98,-6.3 -13.98,-16.74 0,-5.34 1.38,-9.18 4.2,-11.7 2.28,-2.04 6.12,-3.3 10.08,-3.3 0.6,0 1.2,0 1.68,0.06 2.28,0.3 5.1,0.78 8.46,1.56 l 0.48,0.12 z m -4.92,13.92 h -13.68 c 0.06,6.12 2.52,9.18 7.26,9.18 4.44,0 6.36,-2.64 6.42,-8.82 z M 319.075,0 h 6 v 30.6 h -6 z m -0.84,39.36 c 0,-2.34 1.32,-3.6 3.72,-3.6 2.7,0 3.96,1.2 3.96,3.66 0,2.34 -1.26,3.48 -3.84,3.48 -2.52,0 -3.84,-1.2 -3.84,-3.54 m 38.58,-34.86 -0.42,-0.12 c -2.7,-0.36 -5.52,-0.6 -7.62,-0.6 -7.38,0 -10.56,3.18 -10.56,10.62 v 0.54 h 19.98 c -0.06,4.44 -0.24,6.36 -0.9,8.34 -1.62,5.22 -5.52,7.92 -11.4,7.92 -8.7,0 -13.98,-6.3 -13.98,-16.74 0,-5.34 1.38,-9.18 4.2,-11.7 2.28,-2.04 6.12,-3.3 10.08,-3.3 0.6,0 1.2,0 1.68,0.06 2.28,0.3 5.1,0.78 8.46,1.56 l 0.48,0.12 z m -4.92,13.92 h -13.68 c 0.06,6.12 2.52,9.18 7.26,9.18 4.44,0 6.36,-2.64 6.42,-8.82 z m 11.46,-14.94 c 0,-2.7 1.44,-4.14 4.14,-4.14 2.76,0 4.26,1.44 4.26,4.26 0,2.7 -1.44,4.14 -4.14,4.14 -2.76,0 -4.26,-1.44 -4.26,-4.26"
             style="fill:#52be36;fill-opacity:1;fill-rule:nonzero;stroke:none"
             id="path1152" />
        </g>
      </g>
    </g>
  </g>
  <g
     id="g1432"
     inkscape:groupmode="layer"
     inkscape:label="Page 2"
     transform="matrix(1.3333333,0,0,-1.3333333,618.37779,182.70619)" />
</svg>
