<?xml version="1.0" encoding="UTF-8" standalone="no"?>
<!-- Created with Inkscape (http://www.inkscape.org/) -->

<svg
   version="1.1"
   id="svg41550"
   width="213.02933"
   height="213.028"
   viewBox="0 0 213.02933 213.028"
   sodipodi:docname="Alpenverein_Edelweiss_4c_pos.pdf"
   inkscape:version="1.2.1 (9c6d41e410, 2022-07-14)"
   xmlns:inkscape="http://www.inkscape.org/namespaces/inkscape"
   xmlns:sodipodi="http://sodipodi.sourceforge.net/DTD/sodipodi-0.dtd"
   xmlns="http://www.w3.org/2000/svg"
   xmlns:svg="http://www.w3.org/2000/svg">
  <defs
     id="defs41554">
    <clipPath
       clipPathUnits="userSpaceOnUse"
       id="clipPath41566">
      <path
         d="M 0,159.771 H 159.772 V 0 H 0 Z"
         id="path41564" />
    </clipPath>
  </defs>
  <sodipodi:namedview
     id="namedview41552"
     pagecolor="#ffffff"
     bordercolor="#000000"
     borderopacity="0.25"
     inkscape:showpageshadow="2"
     inkscape:pageopacity="0.0"
     inkscape:pagecheckerboard="0"
     inkscape:deskcolor="#d1d1d1"
     showgrid="false"
     inkscape:zoom="3.9900858"
     inkscape:cx="-0.75186353"
     inkscape:cy="122.67907"
     inkscape:window-width="2560"
     inkscape:window-height="1016"
     inkscape:window-x="0"
     inkscape:window-y="27"
     inkscape:window-maximized="1"
     inkscape:current-layer="g41558">
    <inkscape:page
       x="0"
       y="0"
       id="page41556"
       width="213.02933"
       height="213.028" />
  </sodipodi:namedview>
  <g
     id="g41558"
     inkscape:groupmode="layer"
     inkscape:label="Page 1"
     transform="matrix(1.3333333,0,0,-1.3333333,0,213.028)">
    <g
       id="g41560">
      <g
         id="g41562"
         clip-path="url(#clipPath41566)">
        <g
           id="g41568"
           transform="translate(79.886,1.25)">
          <path
             d="m 0,0 c 43.36,0 78.636,35.275 78.636,78.637 0,43.359 -35.276,78.634 -78.636,78.634 -43.36,0 -78.636,-35.275 -78.636,-78.634 C -78.636,35.275 -43.36,0 0,0"
             style="fill:#52be36;fill-opacity:1;fill-rule:nonzero;stroke:none"
             id="path41570" />
        </g>
        <g
           id="g41572"
           transform="translate(79.886,1.25)">
          <path
             d="m 0,0 c 43.36,0 78.636,35.275 78.636,78.637 0,43.359 -35.276,78.634 -78.636,78.634 -43.36,0 -78.636,-35.275 -78.636,-78.634 C -78.636,35.275 -43.36,0 0,0 Z"
             style="fill:none;stroke:#ffffff;stroke-width:2.5;stroke-linecap:butt;stroke-linejoin:miter;stroke-miterlimit:4;stroke-dasharray:none;stroke-opacity:1"
             id="path41574" />
        </g>
        <g
           id="g41576"
           transform="translate(128.4271,69.9334)">
          <path
             d="m 0,0 c -6.869,3.853 -11.863,4.948 -12.076,4.994 -0.007,0.001 -0.18,0.037 -0.471,0.096 7.888,2.048 14.265,6.883 17.743,10.955 0.091,0.107 8.999,10.93 7.756,15.769 -0.253,0.988 -0.884,1.698 -1.824,2.053 -2.327,0.881 -6.041,-1.104 -9.633,-3.023 -0.712,-0.38 -1.403,-0.749 -2.048,-1.075 -3.983,-2.012 -8.616,-3.548 -13.046,-4.326 -1.612,-0.283 -3.096,-0.624 -4.472,-0.99 2.44,3.056 4.208,6.707 4.639,9.661 0.335,2.288 0.536,3.669 -0.487,4.456 -0.953,0.732 -2.162,0.301 -3.767,-0.388 -1.134,-0.486 -3.46,-1.953 -5.994,-3.647 4.746,10.159 5.801,21.825 6.4,28.529 0.098,1.106 0.184,2.058 0.271,2.823 0.202,1.76 0.194,3.512 -1.175,4.132 -1.612,0.727 -3.707,10e-4 -5.861,-2.466 -0.241,-0.276 -0.43,-0.514 -0.638,-0.743 -1.995,-2.193 -7.958,-10.604 -10.197,-13.62 -1.22,-1.643 -6.874,-9.878 -11.122,-14.931 -1.372,3.574 -3.778,7.946 -7.999,12.328 -2.639,2.739 -5.551,5.465 -8.121,7.871 -3.771,3.529 -6.355,6.765 -7.838,8.775 -2.243,3.036 -5.02,6.557 -8.581,5.26 -3.024,-1.106 -2.751,-5.091 -1.41,-10.735 1.361,-5.731 2.52,-10.702 2.903,-13.507 0.269,-1.975 1.829,-9.202 4.927,-15.196 -1.205,0.339 -2.33,0.24 -3.204,-0.362 -0.638,-0.44 -1.84,-1.685 -1.266,-4.57 -5.214,0.193 -14.719,0.85 -20.213,3.097 -2.106,0.862 -4.023,1.79 -5.714,2.608 -3.833,1.855 -5.941,2.876 -7.229,1.662 -1.05,-0.991 -0.566,-2.647 0.114,-4.287 2.505,-6.048 6.78,-14.724 14.956,-20.224 4.796,-3.227 8.277,-4.813 11.802,-5.354 -11.078,-4.882 -19.528,-20.901 -20.966,-26.591 -0.831,-3.289 -1.328,-6.495 0.644,-7.676 0.397,-0.238 0.838,-0.359 1.334,-0.359 1.751,0 4.181,1.513 7.731,4.751 4.061,3.704 11.457,7.433 18.442,10.441 -1.799,-3.672 -4.294,-9.787 -4.294,-15.459 0,-3.825 0.65,-5.777 2.174,-6.527 0.392,-0.193 0.799,-0.276 1.211,-0.276 1.413,0 2.877,0.974 3.948,1.797 0.029,0.023 0.568,0.444 1.442,1.19 -0.418,-4.221 -0.235,-9.422 -0.028,-13.332 0.11,-2.084 0.442,-8.374 5.141,-8.374 0.064,0 0.129,0.002 0.194,0.004 2.833,0.101 5.379,4.394 7.013,7.787 0.361,0.749 1.002,2.034 1.288,2.63 1.158,2.411 4.673,7.771 6.868,10.689 0.492,0.655 0.888,1.18 1.134,1.517 1.333,1.826 2.264,3.627 2.911,5.156 4.694,-10.126 18.855,-20.847 21.877,-22.791 l 0.865,-0.563 c 1.998,-1.303 3.918,-2.556 5.7,-2.556 0.789,0 1.552,0.246 2.281,0.843 1.757,1.439 1.739,5.026 -0.048,9.597 -1.095,2.798 -5.545,11.717 -8.229,17.04 2.167,-1.493 3.835,-2.36 5.159,-2.36 0.523,0 0.995,0.134 1.424,0.416 1.451,0.951 1.666,3.116 0.717,7.237 -0.306,1.331 -0.841,2.67 -1.536,3.992 10.776,-1.963 17.862,-2.381 23.414,-2.514 l 0.469,-0.011 c 1.037,-0.026 2.046,-0.05 3.01,-0.05 4.15,0 7.436,0.457 8.259,3.286 C 17.05,-14.147 18.197,-10.209 0,0"
             style="fill:#ffffff;fill-opacity:1;fill-rule:nonzero;stroke:none"
             id="path41578" />
        </g>
        <g
           id="g41580"
           transform="translate(128.4271,69.9334)">
          <path
             d="m 0,0 c -6.869,3.853 -11.863,4.948 -12.076,4.994 -0.007,0.001 -0.18,0.037 -0.471,0.096 7.888,2.048 14.265,6.883 17.743,10.955 0.091,0.107 8.999,10.93 7.756,15.769 -0.253,0.988 -0.884,1.698 -1.824,2.053 -2.327,0.881 -6.041,-1.104 -9.633,-3.023 -0.712,-0.38 -1.403,-0.749 -2.048,-1.075 -3.983,-2.012 -8.616,-3.548 -13.046,-4.326 -1.612,-0.283 -3.096,-0.624 -4.472,-0.99 2.44,3.056 4.208,6.707 4.639,9.661 0.335,2.288 0.536,3.669 -0.487,4.456 -0.953,0.732 -2.162,0.301 -3.767,-0.388 -1.134,-0.486 -3.46,-1.953 -5.994,-3.647 4.746,10.159 5.801,21.825 6.4,28.529 0.098,1.106 0.184,2.058 0.271,2.823 0.202,1.76 0.194,3.512 -1.175,4.132 -1.612,0.727 -3.707,10e-4 -5.861,-2.466 -0.241,-0.276 -0.43,-0.514 -0.638,-0.743 -1.995,-2.193 -7.958,-10.604 -10.197,-13.62 -1.22,-1.643 -6.874,-9.878 -11.122,-14.931 -1.372,3.574 -3.778,7.946 -7.999,12.328 -2.639,2.739 -5.551,5.465 -8.121,7.871 -3.771,3.529 -6.355,6.765 -7.838,8.775 -2.243,3.036 -5.02,6.557 -8.581,5.26 -3.024,-1.106 -2.751,-5.091 -1.41,-10.735 1.361,-5.731 2.52,-10.702 2.903,-13.507 0.269,-1.975 1.829,-9.202 4.927,-15.196 -1.205,0.339 -2.33,0.24 -3.204,-0.362 -0.638,-0.44 -1.84,-1.685 -1.266,-4.57 -5.214,0.193 -14.719,0.85 -20.213,3.097 -2.106,0.862 -4.023,1.79 -5.714,2.608 -3.833,1.855 -5.941,2.876 -7.229,1.662 -1.05,-0.991 -0.566,-2.647 0.114,-4.287 2.505,-6.048 6.78,-14.724 14.956,-20.224 4.796,-3.227 8.277,-4.813 11.802,-5.354 -11.078,-4.882 -19.528,-20.901 -20.966,-26.591 -0.831,-3.289 -1.328,-6.495 0.644,-7.676 0.397,-0.238 0.838,-0.359 1.334,-0.359 1.751,0 4.181,1.513 7.731,4.751 4.061,3.704 11.457,7.433 18.442,10.441 -1.799,-3.672 -4.294,-9.787 -4.294,-15.459 0,-3.825 0.65,-5.777 2.174,-6.527 0.392,-0.193 0.799,-0.276 1.211,-0.276 1.413,0 2.877,0.974 3.948,1.797 0.029,0.023 0.568,0.444 1.442,1.19 -0.418,-4.221 -0.235,-9.422 -0.028,-13.332 0.11,-2.084 0.442,-8.374 5.141,-8.374 0.064,0 0.129,0.002 0.194,0.004 2.833,0.101 5.379,4.394 7.013,7.787 0.361,0.749 1.002,2.034 1.288,2.63 1.158,2.411 4.673,7.771 6.868,10.689 0.492,0.655 0.888,1.18 1.134,1.517 1.333,1.826 2.264,3.627 2.911,5.156 4.694,-10.126 18.855,-20.847 21.877,-22.791 l 0.865,-0.563 c 1.998,-1.303 3.918,-2.556 5.7,-2.556 0.789,0 1.552,0.246 2.281,0.843 1.757,1.439 1.739,5.026 -0.048,9.597 -1.095,2.798 -5.545,11.717 -8.229,17.04 2.167,-1.493 3.835,-2.36 5.159,-2.36 0.523,0 0.995,0.134 1.424,0.416 1.451,0.951 1.666,3.116 0.717,7.237 -0.306,1.331 -0.841,2.67 -1.536,3.992 10.776,-1.963 17.862,-2.381 23.414,-2.514 l 0.469,-0.011 c 1.037,-0.026 2.046,-0.05 3.01,-0.05 4.15,0 7.436,0.457 8.259,3.286 C 17.05,-14.147 18.197,-10.209 0,0 m -17.853,21.922 c 1.424,0.394 2.987,0.76 4.686,1.058 4.666,0.818 9.545,2.436 13.742,4.556 0.66,0.334 1.368,0.713 2.098,1.102 2.51,1.34 6.307,3.362 7.57,2.89 0.151,-0.057 0.232,-0.122 0.287,-0.336 C 11.128,28.858 6.571,21.508 3.294,17.67 -0.158,13.628 -6.694,8.772 -14.739,7.149 -19.166,6.257 -21.333,6.417 -23.6,6.443 c -1.427,0.017 -3.61,0.431 -3.828,1.947 -0.143,0.997 0.529,2.311 2.476,2.832 1.74,0.466 4.142,1.034 5.242,1.277 4.245,0.94 12.194,4.728 11.56,5.021 -0.337,0.156 -2.419,-0.807 -4.725,-1.676 -1.398,-0.473 -9.913,-2.991 -13.226,-2.245 -1.363,0.307 -2.184,1.29 -2.041,2.366 0.32,2.398 5.839,4.695 10.289,5.957 m -0.366,13.2 c 0.268,0.176 1.937,1.447 2.543,1.169 0.49,-0.27 0.136,-1.408 -0.012,-1.95 -0.863,-3.174 -3.241,-7.503 -6.543,-10.623 -0.132,-0.115 -0.295,-0.263 -0.496,-0.452 -0.032,-0.029 -0.065,-0.058 -0.097,-0.086 -1.434,-1.33 -4.099,-2.102 -5.202,-1.982 -1.041,0.113 -1.551,1.212 -1.831,1.575 0,0 -0.848,1.712 -0.976,2.396 -0.144,0.778 0.222,1.509 2.835,3.301 4.246,2.903 8.202,5.622 9.779,6.652 M -38.931,10.069 c -0.065,3.97 1.681,6.503 4.447,6.701 0.101,0.007 0.271,-0.026 0.37,-0.03 1.782,-0.07 2.742,-1.12 3.275,-2.127 1.269,-2.399 1.114,-5.903 -0.353,-8.129 -0.806,-1.22 -1.868,-1.545 -3.071,-1.545 h -0.001 c -2.208,0 -4.611,1.87 -4.667,5.13 M -36.81,-3.86 c -1.021,-1.451 -3.091,-2.528 -5.276,-2.744 -1.021,-0.101 -4.44,-0.196 -5.587,2.816 -1.056,2.766 0.425,4.738 2.342,5.812 0.063,0.033 0.124,0.069 0.186,0.102 0.314,0.165 0.637,0.308 0.962,0.424 0.76,0.273 1.514,0.448 2.236,0.519 2.827,0.279 4.888,-0.978 5.656,-3.449 0.393,-1.262 0.218,-2.433 -0.519,-3.48 m -3.684,45.142 c 0.201,0.235 0.366,0.435 0.515,0.618 3.271,3.942 6.569,8.842 7.596,10.245 2.118,2.895 7.346,10.328 9.077,12.659 0.875,1.178 2.018,2.94 3.337,2.703 1.151,-0.218 0.539,-3.148 0.396,-4.302 -0.828,-6.723 -1.89,-18.573 -6.835,-28.533 -2.105,-3.734 -4.32,-4.743 -6.093,-5.023 -1.478,-0.233 -2.887,0.577 -3.022,1.428 -0.152,0.952 1.034,2.901 1.595,3.757 10e-4,0.002 0.056,0.086 0.057,0.089 0.702,1.047 1.267,2.054 2.069,3.806 0.137,0.299 2.281,4.964 1.846,5.129 -0.352,0.134 -1.807,-2.936 -1.807,-2.936 -0.365,-0.803 -1.481,-2.653 -1.906,-3.267 -0.865,-1.25 -2.784,-3.978 -5.644,-5.344 -2.573,-1.229 -3.887,-0.792 -4.587,0.468 -0.651,1.171 -0.804,3.568 3.406,8.503 m -2.929,-13.245 c 0.494,0.403 2.341,1.657 5.381,0.918 0.101,-0.025 0.202,-0.051 0.301,-0.079 3.794,-1.06 5.031,-3.94 4.937,-6.083 -0.061,-1.358 -0.641,-2.465 -1.777,-3.163 -2.343,-1.44 -5.361,-0.771 -5.361,-0.771 -0.813,0.183 -1.914,0.844 -2.641,1.412 -1.087,0.849 -2.301,2.609 -2.37,4.488 -0.047,1.318 0.458,2.413 1.53,3.278 m -4.507,-8.545 c 2.067,0 3.941,-0.809 5.278,-2.277 1.345,-1.478 2.018,-3.495 1.894,-5.677 -0.19,-3.278 -2.017,-5.907 -4.729,-7.133 -0.055,-0.025 -0.115,-0.046 -0.169,-0.072 -0.887,-0.376 -1.862,-0.609 -2.904,-0.664 -0.139,-0.008 -0.277,-0.012 -0.414,-0.012 -1.92,0 -3.693,0.763 -4.994,2.148 -1.408,1.5 -2.153,3.561 -2.093,5.804 0.068,2.61 1.322,4.425 2.363,5.49 1.456,1.499 3.292,2.302 5.457,2.386 0.105,0.004 0.208,0.007 0.311,0.007 M -68.109,6.797 c 0.873,-1.467 2.847,-2.592 2.356,-3.689 -0.482,-1.078 -3.765,-0.883 -5.757,-0.687 -4.346,0.646 -7.297,2.334 -8.545,3.784 -0.595,0.691 -0.854,1.524 -0.877,2.011 0.035,0.382 0.339,0.604 0.852,0.541 0.86,-0.105 2.407,-0.116 3.22,-0.14 1.302,-0.04 2.207,-0.009 2.216,-0.009 1.564,0.056 3.641,0.593 4.691,0.381 0.847,-0.171 1.844,-2.192 1.844,-2.192 m -1.432,2.351 c 0.003,10e-4 0.005,0.002 0.008,0.003 0.002,-0.004 0.004,-0.008 0.006,-0.011 -0.005,0.003 -0.01,0.005 -0.014,0.008 m 2.588,5.383 c 0.414,2.253 1.8,3.762 3.804,4.14 0.109,0.02 0.218,0.037 0.326,0.05 2.749,0.325 4.609,-1.951 5.026,-4.371 0.287,-1.642 0.034,-3.171 -0.732,-4.419 -0.789,-1.284 -2.091,-2.206 -3.488,-2.467 -1.376,-0.253 -2.351,0.206 -2.884,0.625 -1.663,1.312 -2.507,3.96 -2.052,6.442 m 4.16,-12.544 c 0.823,1.701 2.478,2.685 4.427,2.647 0.161,-0.002 0.32,-0.014 0.476,-0.025 3.933,-0.265 5.908,-2.735 6.445,-4.974 0.362,-1.498 0.031,-2.94 -0.956,-3.946 -1.109,-1.128 -2.982,-1.717 -4.891,-1.717 h -10e-4 c -1.64,0 -3.177,0.859 -4.329,1.929 -1.936,1.795 -1.983,4.408 -1.171,6.086 m 14.201,21.878 c -0.947,-2.132 -3.263,-3.51 -5.901,-3.51 l -0.185,0.002 c -2.67,0.073 -4.534,1.87 -4.534,4.369 0,3.162 2.896,4.501 5.379,4.686 0.21,0.016 0.416,0.025 0.616,0.025 1.916,0 3.499,-0.745 4.341,-2.043 0.69,-1.061 0.796,-2.381 0.284,-3.529 M -74.57,48.589 c -0.362,2.652 -1.315,6.878 -2.947,13.748 -1.142,4.803 -1.197,7.429 -0.165,7.806 1.585,0.584 3.453,-1.343 5.64,-4.297 1.708,-2.309 4.326,-5.578 8.21,-9.215 2.548,-2.384 5.436,-5.087 8.03,-7.78 2.632,-2.731 4.496,-5.467 5.828,-7.974 3.334,-6.681 -0.768,-8.816 -0.768,-8.816 -1.026,-0.584 -2.48,-0.856 -4.44,0.264 -2.177,1.244 -5.525,5.548 -6.079,6.301 -0.692,0.941 -1.458,2.079 -2.016,2.958 -0.936,1.475 -1.923,3.933 -2.257,3.884 -0.428,-0.062 0.787,-3.061 1.711,-4.917 0,0 1.009,-1.922 1.136,-2.131 2.156,-3.874 3.96,-6.198 4.254,-6.726 0.415,-0.746 -0.221,-2.405 -3.445,-2.626 -3.758,-0.259 -5.811,2.043 -5.811,2.043 -0.992,0.891 -1.934,2.561 -2.472,3.619 -2.579,5.205 -4.082,11.459 -4.409,13.859 m 0.665,-17.956 c 0.457,0.316 1.837,0.083 3.469,-1.426 1.876,-1.734 4.173,-2.886 6.204,-3.642 l 0.011,-0.006 c 0,0 2.785,-1.028 0.463,-3.674 -1.344,-1.532 -4.122,-3.494 -6.433,-0.989 -0.022,0.026 -0.044,0.05 -0.065,0.075 -0.091,0.102 -0.18,0.218 -0.268,0.334 -1.132,1.436 -2.12,3.192 -3.093,5.615 -0.845,2.105 -0.742,3.4 -0.288,3.713 M -83.417,8.84 c -0.022,-0.178 -0.026,-0.366 -0.021,-0.56 -2.844,0.617 -5.82,2.068 -9.843,4.774 -7.614,5.124 -11.084,12.528 -13.774,18.221 -0.264,0.56 -1.027,1.89 -0.615,2.186 0.711,0.522 2.843,-0.976 4.232,-1.813 1.704,-1.027 3.508,-1.851 5.688,-2.743 6.19,-2.532 16.879,-3.158 21.977,-3.313 0.825,-1.992 1.678,-3.58 2.609,-4.923 0.014,-0.021 0.014,-0.03 0.032,-0.055 2.18,-3.014 3.702,-3.858 3.451,-5.09 -0.342,-1.68 -4.979,-0.485 -6.945,-0.047 -1.203,0.304 -4.726,1.337 -6.25,1.932 -5.099,1.989 -6.748,3.249 -6.965,2.969 -0.353,-0.453 5.445,-3.79 7.355,-4.564 0.877,-0.356 6.164,-2.473 9.474,-3.267 1.402,-0.336 1.838,-0.756 1.246,-1.192 -0.42,-0.31 -2.574,-0.498 -4.368,-0.491 -0.226,0.006 -0.453,0.013 -0.679,0.02 -3.177,0.096 -4.878,0.116 -5.769,-0.512 -0.323,-0.229 -0.731,-0.681 -0.835,-1.532 m 5.636,-20.814 c -0.014,-0.006 -0.017,-0.009 -0.029,-0.015 -6.903,-3.032 -13.923,-6.688 -18.008,-10.413 -4.324,-3.944 -5.743,-4.231 -6.025,-4.113 -0.311,0.131 -0.617,0.8 0.427,4.936 0.722,2.855 3.352,8.416 6.982,13.522 2.305,3.241 5.613,7.15 9.574,9.759 0.818,0.51 2.538,1.482 4.196,1.525 2.299,0.059 4.649,-0.778 5.184,-2.218 0.303,-0.816 -0.858,-1.929 -1.372,-2.286 -0.358,-0.248 -1.926,-1.342 -3.762,-2.701 -1.435,-1.062 -5.074,-4.237 -4.695,-4.453 0.437,-0.249 4.272,3.006 6.121,4.006 0.502,0.272 1.96,1.048 2.232,1.186 1.729,0.844 6.053,2.796 9.033,2.406 3.131,-0.41 3.15,-2.878 2.964,-3.5 -0.26,-0.867 -1.585,-2.465 -5.25,-4.106 -3.553,-1.59 -5.788,-2.731 -7.572,-3.535 m 3.605,-20.316 c -1.961,-1.508 -2.344,-1.541 -2.729,-1.226 -0.431,0.353 -0.578,1.401 -0.578,4.248 0,3.978 1.411,8.313 2.832,11.678 1.926,4.269 5.422,7.182 6.713,7.944 0.9,0.532 2.058,0.901 2.769,0.552 0.871,-0.427 -0.544,-2.79 -1.385,-4.239 -1.289,-2.219 -3.475,-5.821 -2.989,-5.97 0.469,-0.143 3.3,4.275 3.3,4.275 0,0 4.177,6.494 6.511,7.358 1.658,0.613 2.392,-0.354 2.627,-0.747 0.538,-0.902 0.103,-2.73 -0.497,-3.922 -4.397,-9.142 -12.967,-17.176 -16.574,-19.951 m 24.124,4.056 -0.396,-0.687 c -0.347,-0.577 -0.736,-1.169 -1.171,-1.766 -0.242,-0.331 -0.63,-0.846 -1.113,-1.489 -2.237,-2.973 -4.891,-7.109 -6.692,-10.314 -0.359,-0.64 -1.468,-2.669 -1.886,-3.474 -1.008,-1.945 -3.39,-6.276 -4.681,-6.322 -0.677,-0.021 -2.426,-0.084 -2.748,6.003 -0.148,2.792 -0.591,11.193 0.464,15.852 3.02,2.875 7.057,7.18 10.312,12.256 0,0 0.521,0.811 0.717,1.136 0.873,1.423 1.6,1.274 1.938,1.104 0.888,-0.447 -0.063,-2.346 -1.156,-4.277 -0.435,-0.768 -2.253,-4.186 -2.8,-5.538 -0.349,-0.862 -1.618,-4.231 -2.007,-6.082 -0.271,-1.29 -0.789,-3.565 -0.421,-3.595 0.158,-0.013 0.484,1.405 1.034,2.913 0.431,1.184 0.854,2.247 1.103,2.876 2.215,5.594 5.038,9.203 5.409,9.738 0.639,0.92 1.559,1.21 2.312,0.959 0.735,-0.245 1.225,-1.221 1.225,-1.221 0.319,-0.678 0.843,-1.435 1.205,-3.818 0.216,-1.432 0.172,-2.836 -0.648,-4.254 m 3.357,7.058 c -1.618,0.062 -5.042,5.563 -5.507,6.222 -0.551,0.783 -2.707,3.952 -1.628,5.942 1.318,2.431 5.852,1.362 9.422,0.172 1.45,-0.484 2.52,-1.151 3.095,-2.131 0.997,-1.696 -0.22,-2.798 -1.446,-4.502 -0.682,-0.948 -1.613,-2.405 -1.852,-3.025 -0.294,-0.759 -1.08,-2.717 -2.084,-2.678 m 23.083,-11.11 c 2.241,-4.512 4.551,-9.266 5.27,-11.103 1.548,-3.96 1.28,-6.35 0.792,-6.75 -0.867,-0.709 -2.199,0.026 -5.028,1.873 l -0.88,0.571 c -2.477,1.594 -13.819,9.995 -19.199,18.472 l -0.541,0.889 c -1.249,1.937 -1.832,3.484 -1.002,5.621 0.841,2.162 2.007,3.889 2.007,3.889 0.529,0.778 0.913,1.083 1.591,1.227 1.011,0.216 2.054,-0.362 2.597,-1.076 0.588,-0.773 4.136,-6.897 4.632,-7.789 1.136,-2.038 4.605,-7.405 4.997,-7.209 0.287,0.144 -1.089,2.542 -1.726,3.749 -0.302,0.574 -2.322,4.346 -2.788,5.607 -0.277,0.749 -0.73,2.275 -0.356,3.254 0.324,0.846 1.309,0.563 2.104,0.139 0.123,-0.071 0.244,-0.143 0.366,-0.214 0.133,-0.083 0.254,-0.165 0.358,-0.24 1.732,-1.257 3.071,-3.61 3.691,-4.915 0.738,-1.555 2.382,-4.549 3.115,-5.995 m 4.949,8.501 c 0.064,-0.538 0.239,-1.435 -0.35,-1.704 -0.75,-0.342 -1.497,0.36 -5.464,3.293 -1.265,0.936 -3.035,2.049 -4.946,3.167 -0.012,0.007 -0.018,0.012 -0.031,0.02 -1.682,1.01 -4.842,3.237 -6.932,4.684 -1.926,1.335 -2.58,2.888 -2.697,3.513 -0.116,0.625 -0.063,1.732 1.388,2.131 1.818,0.501 7.732,-4.134 7.754,-4.151 0.822,-0.677 2.32,-2.099 2.439,-1.969 0.274,0.302 -1.567,2.559 -2.077,3.094 0,0 -0.792,0.841 -1.772,1.742 -0.001,10e-4 -0.001,10e-4 -0.002,0.002 -0.662,0.62 -1.976,1.839 -2.681,2.455 -1.086,0.951 -1.139,1.835 -0.941,2.498 0.164,0.548 0.606,1.152 1.46,1.049 0.656,-0.079 1.975,-1.093 3.005,-1.965 2.949,-2.56 5.745,-5.398 7.825,-8.229 1.642,-2.234 2.893,-4.756 3.353,-6.465 0.468,-1.734 0.589,-2.486 0.669,-3.165 m 32.935,9.043 c -0.477,-1.637 -4.71,-1.534 -8.806,-1.435 l -0.471,0.012 c -4.34,0.104 -9.644,0.388 -16.974,1.472 -0.469,0.084 -6.437,1.163 -8.88,2.806 -0.817,0.55 -2.561,1.628 -2.442,2.468 0.153,1.068 2.749,0.661 4.335,0.342 l 0.001,-10e-4 c 1.087,-0.232 2.64,-0.572 3.447,-0.666 0.934,-0.109 4.9,-0.7 4.978,-0.342 0.078,0.358 -3.775,1.379 -4.916,1.696 -0.812,0.225 -2.494,0.65 -3.46,0.892 -0.063,0.019 -0.132,0.039 -0.216,0.06 -2.787,0.701 -5.911,2.117 -7.976,3.19 -0.827,0.448 -1.587,0.898 -2.275,1.333 -0.96,0.757 -3.437,3.313 -1.047,5.532 2.546,2.364 13.582,0.714 14.376,0.592 1.974,-0.351 3.44,-0.658 3.457,-0.662 0.048,-0.01 4.863,-1.076 11.373,-4.729 12.996,-7.291 15.855,-11.326 15.496,-12.56"
             style="fill:#231f20;fill-opacity:1;fill-rule:nonzero;stroke:none"
             id="path41582" />
        </g>
      </g>
    </g>
  </g>
</svg>
